<svg width="41" height="40" viewBox="0 0 41 40" fill="none" xmlns="http://www.w3.org/2000/svg">
<path d="M20.1736 0C9.12792 0 0.173584 8.95433 0.173584 20C0.173584 31.0457 9.12792 40 20.1736 40C31.2193 40 40.1736 31.0457 40.1736 20C40.1611 8.9595 31.2141 0.0125 20.1736 0ZM20.1736 38.6667C9.86425 38.6667 1.50692 30.3093 1.50692 20C1.50692 9.69067 9.86425 1.33333 20.1736 1.33333C30.4829 1.33333 38.8403 9.69067 38.8403 20C38.8285 30.3044 30.478 38.6549 20.1736 38.6667Z" fill="white"/>
<path d="M36.8402 19.3333C36.4721 19.3333 36.1736 19.6318 36.1736 20C36.1633 28.8322 29.0058 35.9897 20.1736 36C19.8054 36 19.5069 36.2985 19.5069 36.6667C19.5069 37.0348 19.8054 37.3333 20.1736 37.3333C29.7421 37.3227 37.4962 29.5685 37.5069 20C37.5069 19.6318 37.2084 19.3333 36.8402 19.3333Z" fill="white"/>
<path d="M20.1736 2.66667C10.6051 2.67734 2.85094 10.4315 2.84027 20C2.84027 20.3682 3.13877 20.6667 3.50694 20.6667C3.8751 20.6667 4.1736 20.3682 4.1736 20C4.18385 11.1678 11.3414 4.01026 20.1736 4.00001C20.5418 4.00001 20.8403 3.70151 20.8403 3.33334C20.8403 2.96517 20.5418 2.66667 20.1736 2.66667Z" fill="white"/>
<path d="M20.1736 10C19.069 10 18.1736 10.8954 18.1736 12C18.1736 13.1046 19.069 14 20.1736 14C21.2782 14 22.1736 13.1046 22.1736 12C22.1736 10.8954 21.2782 10 20.1736 10ZM20.1736 12.6667C19.8054 12.6667 19.5069 12.3682 19.5069 12C19.5069 11.6318 19.8054 11.3333 20.1736 11.3333C20.5418 11.3333 20.8403 11.6318 20.8403 12C20.8403 12.3682 20.5418 12.6667 20.1736 12.6667Z" fill="white"/>
<path d="M23.5069 26.6667H22.1736V15.3333H15.5069V17.3333C15.5069 18.0697 16.1038 18.6667 16.8402 18.6667H18.1736V30H24.8402V28C24.8402 27.2636 24.2433 26.6667 23.5069 26.6667ZM23.5069 28.6667H19.5069V17.3333H16.8402V16.6667H20.8402V28H23.5069V28.6667Z" fill="white"/>
</svg>
