<svg width="40" height="40" viewBox="0 0 40 40" fill="none" xmlns="http://www.w3.org/2000/svg">
<path d="M39.4389 23.6093C36.9109 18.6375 33.6325 14.116 29.695 10.1704C25.7573 6.22469 21.245 2.93955 16.2834 0.406344C15.4027 -0.0432525 14.3997 -0.122781 13.4592 0.182835C12.5175 0.488841 11.7514 1.14398 11.3021 2.0277C10.7214 3.16994 10.7901 4.47537 11.37 5.51932L10.072 9.13953C10.0718 9.14023 10.0714 9.14086 10.0712 9.14148L9.48947 10.7642L3.80464 26.6194C3.80448 26.6198 3.80432 26.6201 3.80417 26.6205L3.17153 28.3851L0.175602 36.741C-0.180169 37.627 0.0127938 38.5999 0.680587 39.2833C1.35088 39.9718 2.33077 40.1775 3.20864 39.8426L14.3508 35.846C14.6554 35.7368 14.8138 35.4013 14.7045 35.0967C14.5952 34.7921 14.2598 34.6339 13.9551 34.743L2.80771 38.7416C2.34812 38.9211 1.86376 38.818 1.51869 38.4641C1.17393 38.1115 1.0794 37.6281 1.26573 37.1709C1.26893 37.1632 1.2719 37.1554 1.27471 37.1475L2.23117 34.4798C3.1038 35.2572 4.24189 35.7032 5.4299 35.7032C8.07912 35.7032 10.2344 33.5479 10.2344 30.8987C10.2344 28.2494 8.07912 26.0941 5.4299 26.0941C5.36521 26.0941 5.30076 26.0958 5.23631 26.0984L8.42294 17.2109C9.27065 17.8988 10.3306 18.2818 11.4453 18.2818C14.0946 18.2818 16.2499 16.1265 16.2499 13.4773C16.2499 10.841 14.1153 8.69462 11.4839 8.67368L12.2393 6.56687C14.0489 7.72027 16.0547 8.63321 17.7933 9.89216C18.0612 10.0733 18.4256 10.0032 18.6069 9.73514C18.7883 9.4671 18.7179 9.10281 18.45 8.92157C16.8591 7.84535 15.1779 6.85303 13.4532 5.97243C12.2091 5.33722 11.7127 3.80578 12.3467 2.55862C12.6541 1.95435 13.1777 1.50631 13.8214 1.29718C14.4639 1.08859 15.1489 1.14273 15.7506 1.44991C20.6024 3.9271 25.0149 7.13959 28.8656 10.9981C32.7162 14.8567 35.9221 19.2784 38.3944 24.1405C39.0285 25.3877 38.5322 26.919 37.288 27.5543C36.061 28.2007 34.4858 27.6707 33.8841 26.4455C30.6805 20.1451 26.2438 14.7941 20.6973 10.5411C20.4406 10.3443 20.0728 10.3928 19.8758 10.6496C19.6789 10.9064 19.7274 11.2742 19.9842 11.4712C25.7548 15.7488 29.9282 21.477 33.3856 27.7735L16.5291 33.8198C16.2245 33.929 16.0662 34.2646 16.1754 34.5692C16.2843 34.8768 16.6282 35.0316 16.9248 34.9228L34.4977 28.6196C35.5424 29.1387 36.7706 29.1347 37.821 28.598C39.6396 27.6694 40.3654 25.4316 39.4389 23.6093ZM5.4299 27.266C7.43297 27.266 9.06261 28.8955 9.06261 30.8987C9.06261 32.9018 7.43297 34.5314 5.4299 34.5314C4.3672 34.5314 3.3559 34.0608 2.66897 33.2595L4.26493 28.8076L4.79812 27.3206C5.00523 27.2842 5.2167 27.266 5.4299 27.266ZM11.4453 9.84459C13.4484 9.84459 15.0781 11.4741 15.0781 13.4773C15.0781 15.4804 13.4484 17.11 11.4453 17.11C10.461 17.11 9.53205 16.7162 8.8505 16.0196L10.4155 11.6538L11.0568 9.86505C11.1849 9.85146 11.3148 9.84459 11.4453 9.84459Z" fill="white"/>
<path d="M14.7436 25.9771C14.4226 25.9666 14.1509 26.2238 14.1423 26.5473C14.0643 29.2412 16.2496 31.4884 18.9451 31.484C21.5943 31.484 23.7496 29.3287 23.7496 26.6794C23.7496 24.0302 21.5943 21.8749 18.9451 21.8749C17.5028 21.8749 16.1496 22.5144 15.2326 23.6294C15.0271 23.8794 15.0631 24.2487 15.313 24.4542C15.563 24.6599 15.9322 24.6239 16.1377 24.3738C16.8312 23.5305 17.8545 23.0468 18.9451 23.0468C20.9481 23.0468 22.5778 24.6764 22.5778 26.6795C22.5778 28.6827 20.9481 30.3122 18.9451 30.3122C16.9067 30.3156 15.254 28.6156 15.3138 26.5784C15.3224 26.2548 15.0671 25.9856 14.7436 25.9771Z" fill="white"/>
<path d="M18.4715 19.7149C18.5277 19.7149 18.5845 19.7068 18.6403 19.69C18.7288 19.6633 20.8154 19.0189 21.3843 17.3809C21.9507 15.7505 20.7395 13.9053 20.6876 13.8276C20.5446 13.6131 20.2781 13.5176 20.0314 13.5915C19.9429 13.6182 17.8563 14.2626 17.2873 15.9006C16.721 17.531 17.9322 19.3762 17.984 19.454C18.0947 19.6199 18.2793 19.7149 18.4715 19.7149V19.7149ZM18.3943 16.285C18.6289 15.6096 19.3922 15.131 19.9395 14.8809C20.2126 15.4345 20.5149 16.3127 20.2774 16.9963C20.0429 17.6717 19.2795 18.1502 18.7322 18.4004C18.4591 17.8469 18.1568 16.9686 18.3943 16.285Z" fill="white"/>
<path d="M25.7369 21.1154C26.0409 21.2268 26.3773 21.0706 26.4885 20.7666C26.5997 20.4627 26.4436 20.1263 26.1397 20.015C25.2065 19.6734 24.2708 19.6896 24.2312 19.6903C23.9735 19.6958 23.7497 19.8692 23.6798 20.1173C23.6549 20.2057 23.0827 22.2977 24.1524 23.6483C25.1848 24.9264 27.1256 24.9559 27.5019 24.9589C27.7596 24.9534 27.9835 24.78 28.0533 24.5319C28.0635 24.4955 28.3031 23.6297 28.2071 22.6701C28.1749 22.3481 27.8876 22.1129 27.5658 22.1453C27.2438 22.1775 27.0089 22.4647 27.0411 22.7866C27.0772 23.1476 27.0499 23.4983 27.0129 23.7618C26.405 23.695 25.5145 23.4803 25.071 22.9205C24.6331 22.3675 24.6375 21.4793 24.7186 20.8887C24.9996 20.919 25.3734 20.9824 25.7369 21.1154Z" fill="white"/>
<path d="M10.0231 20.452C9.77479 20.3825 9.51042 20.4836 9.3716 20.7009C9.32238 20.778 8.17226 22.6077 8.80224 24.2048C9.42933 25.7945 11.5286 26.3978 11.6176 26.4227C11.8614 26.4921 12.1305 26.3924 12.2692 26.1739C12.3184 26.0968 13.4685 24.267 12.8385 22.6699C12.2114 21.0802 10.1122 20.477 10.0231 20.452ZM11.499 25.1335C10.9859 24.9154 10.1671 24.4712 9.89236 23.7747C9.63534 23.1231 9.89455 22.2803 10.1418 21.7412C10.6549 21.9593 11.4737 22.4035 11.7485 23.0999C12.0055 23.7515 11.7463 24.5943 11.499 25.1335Z" fill="white"/>
</svg>
