<svg width="39" height="40" viewBox="0 0 39 40" fill="none" xmlns="http://www.w3.org/2000/svg">
<path d="M38.7904 23.9874C38.7928 23.9512 38.7928 23.9148 38.7904 23.8786C38.7695 23.8318 38.7443 23.787 38.7151 23.7448L38.6398 23.6444L23.7566 9.4221C23.6352 9.30361 23.4805 9.22476 23.3132 9.19621C22.0379 9.01823 20.7525 8.92317 19.4648 8.91177C18.9737 8.52986 18.4012 8.26643 17.7916 8.14209C17.6494 6.60274 17.8167 3.12246 20.6863 1.5831C21.0928 1.35209 21.2352 0.835177 21.0042 0.428586C20.7732 0.0219961 20.2562 -0.120332 19.8497 0.110676C16.1268 2.1269 15.8841 6.32666 15.9678 8.13372C15.2214 8.30094 14.5372 8.67501 13.9934 9.21295C7.87783 10.1332 3.36015 12.8605 0.9089 17.1272V17.1691V17.2193C0.867069 17.3172 0.844377 17.4223 0.841971 17.5288V32.4706C0.835278 32.8797 1.12548 33.2336 1.52799 33.3072L37.8116 40H37.9622C38.4242 40 38.7988 39.6254 38.7988 39.1634V24.1715C38.7988 24.1715 38.7988 24.1715 38.7988 24.1129C38.7991 24.071 38.7963 24.029 38.7904 23.9874ZM16.9383 9.67308C18.269 9.66848 19.3515 10.7434 19.3561 12.0741C19.3607 13.4049 18.2857 14.4873 16.955 14.4919C15.6243 14.4965 14.5418 13.4216 14.5372 12.0909C14.5372 12.088 14.5372 12.0853 14.5372 12.0825C14.5372 10.7551 15.6108 9.67768 16.9383 9.67308ZM12.9979 11.0786C12.9118 11.4035 12.8668 11.738 12.864 12.0741C12.7979 14.328 14.5713 16.2086 16.8251 16.2747C19.0789 16.3408 20.9596 14.5674 21.0257 12.3136C21.0434 11.7112 20.9274 11.1122 20.6863 10.5599C21.6316 10.6101 22.3595 10.6937 22.6941 10.7356L35.3938 22.8747L3.11754 16.9181C5.18396 13.9398 8.51365 11.9905 12.9979 11.0786ZM2.54028 31.7678V27.7521L37.1507 33.9848L37.159 38.1595L2.54028 31.7678ZM2.54028 26.0538V23.544L37.1507 29.7767L37.159 32.3033L2.54028 26.0538ZM2.54028 21.8624V18.516L28.2157 23.2596L37.1423 24.9328L37.159 28.1202L2.54028 21.8624Z" fill="white"/>
</svg>
