<svg id="Capa_1" enable-background="new 0 0 510.68 510.68" height="40" viewBox="0 0 510.68 510.68" fill="white" width="40" xmlns="http://www.w3.org/2000/svg"><g><path d="m420.34 120.68h-30v-59.68h-59.68v-61h-30v61h-180.32v59.68h-30v90h31.425l30 300h207.149l30-300h31.425v-90zm-270-29.68h210v29.68h-210zm181.425 389.68h-152.85l-27-270h206.85zm58.575-300h-270v-30h270z"/><path d="m255.34 375.805c33.084 0 60-26.916 60-60s-26.916-60-60-60-60 26.916-60 60 26.916 60 60 60zm0-90c16.542 0 30 13.458 30 30s-13.458 30-30 30-30-13.458-30-30 13.458-30 30-30z"/></g></svg>