<svg width="40" height="40" viewBox="0 0 40 40" fill="none" xmlns="http://www.w3.org/2000/svg">
<path d="M39.3333 12.3077H33.3333V5.38461C33.3333 5.1806 33.4036 4.98495 33.5286 4.84069C33.6536 4.69643 33.8232 4.61538 34 4.61538H38C38.1768 4.61538 38.3464 4.53434 38.4714 4.39008C38.5964 4.24582 38.6667 4.05017 38.6667 3.84615V0.769231C38.6667 0.565218 38.5964 0.369561 38.4714 0.225303C38.3464 0.0810439 38.1768 0 38 0H34C32.7627 0.00162874 31.5766 0.569458 30.7017 1.57892C29.8268 2.58837 29.3347 3.95703 29.3333 5.38461V12.3077H27.4913L26.6606 5.28077C26.6389 5.09643 26.5599 4.92743 26.4385 4.80509C26.317 4.68275 26.1612 4.61536 26 4.61538H4.6666C4.57014 4.61536 4.47483 4.63949 4.38724 4.6861C4.29965 4.73272 4.22187 4.80071 4.15926 4.88538C4.0806 4.99948 4.032 5.13725 4.01926 5.28231L0.00592272 39.1285C-0.00671636 39.2371 0.000926787 39.3477 0.0283398 39.4527C0.0557529 39.5577 0.102302 39.6547 0.164867 39.7372C0.227432 39.8197 0.304566 39.8859 0.391098 39.9312C0.47763 39.9765 0.57156 40 0.666591 40H36.6667C36.8361 40.0004 36.9993 39.9264 37.1232 39.7929C37.247 39.6595 37.3221 39.4766 37.3333 39.2815L38.6233 16.9231H39.3333C39.5101 16.9231 39.6797 16.842 39.8047 16.6978C39.9298 16.5535 40 16.3579 40 16.1538V13.0769C40 12.8729 39.9298 12.6773 39.8047 12.533C39.6797 12.3887 39.5101 12.3077 39.3333 12.3077ZM30.6666 5.38461C30.6677 4.36493 31.0192 3.38735 31.6441 2.66632C32.269 1.94529 33.1163 1.53968 34 1.53846H37.3333V3.07692H34C33.4696 3.07692 32.9608 3.32005 32.5858 3.75283C32.2107 4.18561 32 4.77258 32 5.38461V12.3077H30.6666V5.38461ZM25.418 6.15385L25.782 9.23077H5.87193L5.44793 6.15385H25.418ZM5.33327 38.4615V30.7692H3.99993V38.4615H1.43059L4.71727 10.6492L8.55194 38.4615H5.33327ZM9.90261 38.4615L6.08393 10.7692H25.9633L26.1453 12.3077H22C21.8232 12.3077 21.6536 12.3887 21.5286 12.533C21.4035 12.6773 21.3333 12.8729 21.3333 13.0769V16.1538C21.3333 16.3579 21.4035 16.5535 21.5286 16.6978C21.6536 16.842 21.8232 16.9231 22 16.9231H22.71L23.954 38.4615H9.90261ZM36.0427 38.4615H25.2906L25.024 33.8462H36.3093L36.0427 38.4615ZM36.3987 32.3077H24.9333L24.3113 21.5385H37.0207L36.3987 32.3077ZM37.1093 20H24.224L24.046 16.9231H37.2873L37.1093 20ZM38.6667 15.3846H22.6666V13.8462H38.6667V15.3846Z" fill="white"/>
<path d="M30.6667 30.7692C31.3259 30.7692 31.9704 30.5437 32.5186 30.121C33.0667 29.6984 33.494 29.0977 33.7463 28.3949C33.9985 27.6922 34.0646 26.9188 33.9359 26.1727C33.8073 25.4267 33.4899 24.7413 33.0237 24.2034C32.5575 23.6656 31.9636 23.2992 31.317 23.1508C30.6704 23.0024 30.0001 23.0786 29.391 23.3697C28.782 23.6608 28.2614 24.1538 27.8951 24.7863C27.5288 25.4188 27.3333 26.1624 27.3333 26.9231C27.3344 27.9428 27.6859 28.9204 28.3108 29.6414C28.9357 30.3624 29.7829 30.768 30.6667 30.7692ZM30.6667 24.6154C31.0622 24.6154 31.4489 24.7507 31.7778 25.0043C32.1067 25.2579 32.363 25.6183 32.5144 26.04C32.6658 26.4617 32.7054 26.9256 32.6282 27.3733C32.5511 27.8209 32.3606 28.2321 32.0809 28.5549C31.8012 28.8776 31.4448 29.0974 31.0568 29.1864C30.6689 29.2755 30.2667 29.2298 29.9013 29.0551C29.5358 28.8805 29.2235 28.5847 29.0037 28.2052C28.7839 27.8257 28.6666 27.3795 28.6666 26.9231C28.6666 26.3111 28.8774 25.7241 29.2524 25.2913C29.6275 24.8585 30.1362 24.6154 30.6667 24.6154Z" fill="white"/>
<path d="M11.3293 29.1461L10.0039 29.3154L10.6706 36.2385C10.6887 36.4267 10.7662 36.6006 10.8885 36.7269C11.0108 36.8532 11.1692 36.9231 11.3333 36.9231H14.6666V35.3846H11.9333L11.3293 29.1461Z" fill="white"/>
<path d="M17.3333 35.3846H16V36.9231H17.3333V35.3846Z" fill="white"/>
</svg>
