<svg width="41" height="40" viewBox="0 0 41 40" fill="none" xmlns="http://www.w3.org/2000/svg">
<path d="M37.0157 26.3369C34.5483 26.3369 32.1315 25.9516 29.8389 25.1937C28.721 24.8084 27.4536 25.1053 26.7168 25.8548L22.1757 29.2843C16.9673 26.5053 13.6325 23.1726 10.8873 17.9979L14.2242 13.5643C15.0642 12.7222 15.3652 11.4947 15.0052 10.3432C14.2452 8.04001 13.8578 5.62106 13.8578 3.1579C13.8578 1.41681 12.441 0 10.6999 0H3.33148C1.59039 0 0.173584 1.41681 0.173584 3.1579C0.173584 23.4716 16.702 40 37.0157 40C38.7568 40 40.1736 38.5832 40.1736 36.8421V29.4948C40.1736 27.7537 38.7568 26.3369 37.0157 26.3369ZM38.0684 36.8421C38.0684 37.4232 37.5947 37.8948 37.0157 37.8948C17.862 37.8948 2.27882 22.3116 2.27882 3.1579C2.27882 2.57684 2.7525 2.10523 3.33148 2.10523H10.6999C11.2789 2.10523 11.7526 2.57684 11.7526 3.1579C11.7526 5.84635 12.1737 8.48636 12.9989 10.9895C13.121 11.3831 13.0221 11.7895 12.6368 12.1895L8.8052 17.2631C8.56313 17.5852 8.52524 18.0168 8.70839 18.3747C11.8305 24.5074 15.6221 28.3011 21.799 31.4653C22.1547 31.6505 22.5905 31.6126 22.9126 31.3685L28.0958 27.4401C28.3779 27.1622 28.7926 27.0653 29.1674 27.1895C31.6854 28.0211 34.3254 28.4421 37.0159 28.4421C37.5949 28.4421 38.0686 28.9137 38.0686 29.4948V36.8421H38.0684Z" fill="white"/>
</svg>
